<svg xmlns="http://www.w3.org/2000/svg" viewBox="0 0 698.88 189.56"><defs><style>.cls-1{fill:#fff;}</style></defs><g id="Layer_2" data-name="Layer 2"><g id="Layer_1-2" data-name="Layer 1"><path class="cls-1" d="M106.41,1.33V4H22.19V89.56h78.07v2.68H22.19v96.25H0V1.33Z"/><path class="cls-1" d="M188,0,185,1.33,105.07,188.49h3.21l25.4-58.82h0l-.12,0,1.1-2.68h.07l42-96.73L211,127h0l.83,2.68,0,.05,20.84,58.77h22.72Z"/><path class="cls-1" d="M279.39,3.47q31-2.13,54.81-2.14,66,0,66,44.12,0,16.57-9.63,28.47T359.87,90.1q20.31,2.4,32.08,12.3t11.77,34.49q0,51.6-66,51.6H279.39ZM334.2,4a299.88,299.88,0,0,0-32.62,1.87V89.3h39.57q37.69-1.6,37.7-43.32,0-20.31-11.23-31.14T334.2,4Zm-32.62,181.8h36.1q23.79,0,33.82-12.43t10-38.1q0-25.66-10.16-34.22T341.15,92H301.58Z"/><path class="cls-1" d="M538.2,1.33V4H454V84.22h78.07v2.67H454v98.92h90.1v2.68H431.79V1.33Z"/><path class="cls-1" d="M695.41,1.33h3.47v107q0,42-16.57,61.63T639,189.56q-16.85,0-28.6-3.08a59.65,59.65,0,0,1-22.2-11.36q-21.39-16.58-21.38-66.84V1.33H589V108q0,48.66,14.7,65,7.49,8,15.64,11T639,186.88q25.66,0,41-18.85t15.38-60Z"/></g></g></svg>